<svg xmlns="http://www.w3.org/2000/svg" width="1600" height="900" viewBox="0 0 1600 900"><title>Perks — Launch with rewards</title><defs>
<linearGradient id="bg" x2=".8" y2="1"><stop stop-color="#060b14"/><stop offset="1" stop-color="#09182b"/></linearGradient><radialGradient id="ambient"><stop stop-color="#086bd8" stop-opacity=".28"/><stop offset="1" stop-color="#086bd8" stop-opacity="0"/></radialGradient>
<linearGradient id="ice" x2=".7" y2="1"><stop stop-color="#fff"/><stop offset=".5" stop-color="#d1e7ff"/><stop offset="1" stop-color="#75baff"/></linearGradient>
<linearGradient id="glass" x2="1" y2="1"><stop stop-color="#234c79" stop-opacity=".55"/><stop offset="1" stop-color="#086bd8" stop-opacity=".16"/></linearGradient>
<linearGradient id="rim" x2=".9" y2="1"><stop stop-color="#e7f6ff" stop-opacity=".9"/><stop offset=".5" stop-color="#9dd8ff" stop-opacity=".3"/><stop offset="1" stop-color="#e0faff" stop-opacity=".65"/></linearGradient>
<linearGradient id="panel" x2="1" y2="1"><stop stop-color="#183354"/><stop offset="1" stop-color="#09284c"/></linearGradient>
<filter id="frame-glow" x="-10%" y="-10%" width="120%" height="120%" color-interpolation-filters="sRGB"><feGaussianBlur stdDeviation="8"/></filter>
<linearGradient id="reward-glass" x1="0" y1="0" x2="1" y2="1"><stop stop-color="#264c74"/><stop offset=".5" stop-color="#123f85"/><stop offset="1" stop-color="#086bd8"/></linearGradient><linearGradient id="sheen" x2="1" y2="1"><stop stop-color="#d8f1ff" stop-opacity=".12"/><stop offset=".55" stop-color="#d8f1ff" stop-opacity="0"/></linearGradient><linearGradient id="launch-glass" x1=".1" y1="0" x2=".85" y2="1"><stop stop-color="#31597c"/><stop offset=".35" stop-color="#173955"/><stop offset=".7" stop-color="#102c4c"/><stop offset="1" stop-color="#0b1d36"/></linearGradient><linearGradient id="launch-rim" x2=".85" y2="1"><stop stop-color="#d6efff" stop-opacity=".8"/><stop offset=".4" stop-color="#8bcaff" stop-opacity=".4"/><stop offset=".75" stop-color="#2b6ea7" stop-opacity=".25"/><stop offset="1" stop-color="#b5eaff" stop-opacity=".65"/></linearGradient><filter id="pressed" x="-20%" y="-20%" width="140%" height="140%" color-interpolation-filters="sRGB"><feGaussianBlur in="SourceAlpha" stdDeviation="3" result="blur"/><feOffset in="blur" dx="2" dy="5" result="shift"/><feComposite in="shift" in2="SourceAlpha" operator="arithmetic" k2="-1" k3="1" result="inside"/><feFlood flood-color="#010a16" flood-opacity=".8"/><feComposite in2="inside" operator="in" result="shade"/><feMerge><feMergeNode in="SourceGraphic"/><feMergeNode in="shade"/></feMerge></filter><radialGradient id="launch-light"><stop stop-color="#247bca" stop-opacity=".22"/><stop offset="1" stop-color="#1260b5" stop-opacity="0"/></radialGradient><radialGradient id="text-shade"><stop stop-color="#071426" stop-opacity=".86"/><stop offset=".5" stop-color="#071426" stop-opacity=".65"/><stop offset="1" stop-color="#071426" stop-opacity="0"/></radialGradient></defs><path fill="url(#bg)" d="M0 0H1600V900H0Z"/><ellipse cx="800" cy="670" rx="850" ry="610" fill="url(#ambient)"/>
<g id="Atmospheric-background"><ellipse cx="340" cy="300" rx="700" ry="630" fill="url(#launch-light)"/><ellipse cx="1370" cy="810" rx="830" ry="730" fill="url(#launch-light)"/>
<g transform="translate(880 480) rotate(-29) scale(3.55) translate(-474 -476)" stroke-linejoin="round" opacity=".28"><g fill="url(#launch-glass)" filter="url(#pressed)"><path fill-rule="evenodd" d="M282 284C313 260 338 234 374 240C421 248 605 300 671 320C711 332 729 354 748 398C766 442 786 470 774 503C768 523 751 540 727 556L478 700C441 723 406 708 384 677L245 439C253 419 279 411 300 399C326 384 319 361 304 339C290 318 278 295 282 284ZM469 320L441 373C431 393 439 405 460 411L526 429C556 436 571 428 574 408L577 359C578 342 574 339 552 333L495 317C482 314 475 315 469 320ZM628 356C615 357 612 369 612 385L610 409C610 435 622 446 644 448L685 451C707 452 716 443 711 429L690 382C686 373 680 369 668 365C652 359 637 355 628 356ZM424 486L438 612C440 631 449 632 459 616L522 528C544 499 549 479 527 465L468 448C444 438 419 456 424 486ZM503 616L678 501C700 487 699 486 673 485L632 483C609 482 588 492 574 510C552 538 530 579 503 616Z"/><path fill-rule="evenodd" d="M174 335C199 321 219 308 232 291C239 282 247 284 251 301C258 327 265 345 279 363C286 373 285 375 273 382C248 394 231 404 218 416C211 424 205 424 202 413C196 386 190 369 178 355C170 346 168 341 174 335Z"/></g><g fill="none" stroke="url(#launch-rim)" stroke-width=".55"><path fill-rule="evenodd" d="M282 284C313 260 338 234 374 240C421 248 605 300 671 320C711 332 729 354 748 398C766 442 786 470 774 503C768 523 751 540 727 556L478 700C441 723 406 708 384 677L245 439C253 419 279 411 300 399C326 384 319 361 304 339C290 318 278 295 282 284ZM469 320L441 373C431 393 439 405 460 411L526 429C556 436 571 428 574 408L577 359C578 342 574 339 552 333L495 317C482 314 475 315 469 320ZM628 356C615 357 612 369 612 385L610 409C610 435 622 446 644 448L685 451C707 452 716 443 711 429L690 382C686 373 680 369 668 365C652 359 637 355 628 356ZM424 486L438 612C440 631 449 632 459 616L522 528C544 499 549 479 527 465L468 448C444 438 419 456 424 486ZM503 616L678 501C700 487 699 486 673 485L632 483C609 482 588 492 574 510C552 538 530 579 503 616Z"/><path fill-rule="evenodd" d="M174 335C199 321 219 308 232 291C239 282 247 284 251 301C258 327 265 345 279 363C286 373 285 375 273 382C248 394 231 404 218 416C211 424 205 424 202 413C196 386 190 369 178 355C170 346 168 341 174 335Z"/></g></g>
<ellipse cx="800" cy="450" rx="760" ry="440" fill="url(#text-shade)"/></g>
<g id="Site-header-wordmark" transform="translate(74 58) scale(1.3)"><svg x="0" y="1" width="37" height="37" xmlns="http://www.w3.org/2000/svg" viewBox="140 225 670 520"><title>Perks</title><defs><linearGradient id="brand-ice" x1="10%" y1="0%" x2="70%" y2="100%"><stop stop-color="#ffffff"/><stop offset=".35" stop-color="#dfefff"/><stop offset=".7" stop-color="#86c7ff"/><stop offset="1" stop-color="#288bff"/></linearGradient><filter id="brand-depth" x="-20%" y="-20%" width="150%" height="150%"><feDropShadow dx="0" dy="9" stdDeviation="6" flood-color="#004591" flood-opacity=".4"/></filter></defs><g fill="url(#brand-ice)" stroke="#e0f3ff" stroke-width="1.5" filter="url(#brand-depth)"><path  fill-rule="evenodd" d="M282 284C313 260 338 234 374 240C421 248 605 300 671 320C711 332 729 354 748 398C766 442 786 470 774 503C768 523 751 540 727 556L478 700C441 723 406 708 384 677L245 439C253 419 279 411 300 399C326 384 319 361 304 339C290 318 278 295 282 284ZM469 320L441 373C431 393 439 405 460 411L526 429C556 436 571 428 574 408L577 359C578 342 574 339 552 333L495 317C482 314 475 315 469 320ZM628 356C615 357 612 369 612 385L610 409C610 435 622 446 644 448L685 451C707 452 716 443 711 429L690 382C686 373 680 369 668 365C652 359 637 355 628 356ZM424 486L438 612C440 631 449 632 459 616L522 528C544 499 549 479 527 465L468 448C444 438 419 456 424 486ZM503 616L678 501C700 487 699 486 673 485L632 483C609 482 588 492 574 510C552 538 530 579 503 616Z"/>
<path  d="M174 335C199 321 219 308 232 291C239 282 247 284 251 301C258 327 265 345 279 363C286 373 285 375 273 382C248 394 231 404 218 416C211 424 205 424 202 413C196 386 190 369 178 355C170 346 168 341 174 335Z"/></g></svg><text x="43" y="32" font-family="Arial, Helvetica, sans-serif" font-size="39" font-weight="600" letter-spacing="-2.5" fill="#f8fbff">perks</text></g>
<text x="78" y="358" font-family="Arial, Helvetica, sans-serif" font-size="91" font-weight="400" fill="#f4f8ff" letter-spacing="-4.8">Launch with</text><text x="78" y="455" font-family="Arial, Helvetica, sans-serif" font-size="91" font-weight="400" fill="#89c6ff" letter-spacing="-4.8">rewards.</text><text x="82" y="517" font-family="Arial, Helvetica, sans-serif" font-size="21" font-weight="400" fill="#a5b9d3" >Give your holders rewards</text><text x="82" y="549" font-family="Arial, Helvetica, sans-serif" font-size="21" font-weight="400" fill="#a5b9d3" >they can spend on gift cards.</text><text x="82" y="825" font-family="Arial, Helvetica, sans-serif" font-size="14" font-weight="400" fill="#829dbb" >Illustrative launch form</text><g transform="translate(791 188)"><rect x="0" y="0" width="665" height="632" rx="26" fill="#09192c" stroke="#8fc5ff50"/><text x="30" y="56" font-family="Arial, Helvetica, sans-serif" font-size="30" font-weight="400" fill="#f4f8ff" >Create token</text><path d="M616 34l12 12m0 -12l-12 12" fill="none" stroke="#88a9ce" stroke-width="1.5"/><text x="30" y="101" font-family="Arial, Helvetica, sans-serif" font-size="14" font-weight="400" fill="#abc5e1" >Token name</text><text x="436" y="101" font-family="Arial, Helvetica, sans-serif" font-size="14" font-weight="400" fill="#abc5e1" >Ticker</text><rect x="30" y="115" width="386" height="52" rx="11" fill="#081b30" stroke="#8fc5ff35"/><text x="47" y="149" font-family="Arial, Helvetica, sans-serif" font-size="19" font-weight="400" fill="#87a4c2" >Your token</text><rect x="436" y="115" width="199" height="52" rx="11" fill="#081b30" stroke="#8fc5ff35"/><text x="453" y="149" font-family="Arial, Helvetica, sans-serif" font-size="19" font-weight="400" fill="#87a4c2" >TOKEN</text><text x="30" y="201" font-family="Arial, Helvetica, sans-serif" font-size="14" font-weight="400" fill="#abc5e1" >The story</text><rect x="30" y="214" width="605" height="82" rx="11" fill="#081b30" stroke="#8fc5ff35"/><text x="47" y="245" font-family="Arial, Helvetica, sans-serif" font-size="16" font-weight="400" fill="#87a4c2" >A short description of the token</text><rect x="30" y="319" width="605" height="101" rx="14" fill="#132a43" stroke="#8fc5ff50"/><g fill="none" stroke="#93c9f8" stroke-width="1.6"><rect x="54" y="346" width="39" height="39" rx="7"/><path d="M60 376l9 -10 7 7 5 -5 7 8"/><circle cx="81" cy="355" r="3"/></g><text x="114" y="355" font-family="Arial, Helvetica, sans-serif" font-size="16" font-weight="400" fill="#dcecff" >Choose an image</text><text x="114" y="383" font-family="Arial, Helvetica, sans-serif" font-size="13" font-weight="400" fill="#87a4c2" >PNG, JPEG or WebP · up to 4 MB</text><text x="30" y="461" font-family="Arial, Helvetica, sans-serif" font-size="14" font-weight="400" fill="#abc5e1" >Initial buy in SOL (optional)</text><rect x="30" y="475" width="605" height="48" rx="11" fill="#081b30" stroke="#8fc5ff35"/><text x="47" y="506" font-family="Arial, Helvetica, sans-serif" font-size="18" font-weight="400" fill="#c7def5" >0</text><rect x="30" y="550" width="605" height="57" rx="28.5" fill="url(#ice)" stroke="#d9efffaa"/><text x="332.5" y="586" font-family="Arial, Helvetica, sans-serif" font-size="18" font-weight="500" fill="#072c63" text-anchor="middle">Review launch</text></g><g id="Social-pills" transform="translate(1123 -733)"><rect x="78" y="794" width="132" height="45" rx="22.5" fill="url(#glass)" stroke="url(#rim)"/><circle cx="103" cy="816" r="8" fill="none" stroke="#eef8ff" stroke-width="1.3"/><path d="M95 816H111M103 808C99 813 99 819 103 824C107 819 107 813 103 808" fill="none" stroke="#eef8ff" stroke-width="1"/><text x="121" y="822" font-size="16" fill="#f4f8ff" font-weight="400" font-family="Arial, Helvetica, sans-serif">perksp.ad</text><rect x="222" y="794" width="145" height="45" rx="22.5" fill="url(#glass)" stroke="url(#rim)"/><path d="M242 809L255 824M255 809L242 824" stroke="#eef8ff" stroke-width="1.6"/><text x="269" y="822" font-size="16" fill="#f4f8ff" font-weight="400" font-family="Arial, Helvetica, sans-serif">@perkspad</text></g>
</svg>